<mxfile host="app.diagrams.net" modified="2021-06-21T11:55:38.641Z" agent="5.0 (X11; Linux x86_64) AppleWebKit/537.36 (KHTML, like Gecko) Chrome/91.0.4472.77 Safari/537.36" etag="ubE2mQ-MzYhsonK2wVdp" version="14.8.0" type="github">
  <diagram id="KPbSdK8hrhy4o_54Y12F" name="Page-1">
    <mxGraphModel dx="1357" dy="777" grid="1" gridSize="10" guides="1" tooltips="1" connect="1" arrows="1" fold="1" page="1" pageScale="1" pageWidth="2000" pageHeight="2200" math="0" shadow="0">
      <root>
        <mxCell id="0" />
        <mxCell id="1" parent="0" />
        <mxCell id="MGecMGWnMkol5uJ0eFOr-1" style="edgeStyle=orthogonalEdgeStyle;rounded=0;orthogonalLoop=1;jettySize=auto;html=1;entryX=0.5;entryY=0;entryDx=0;entryDy=0;" edge="1" parent="1" source="MGecMGWnMkol5uJ0eFOr-2" target="MGecMGWnMkol5uJ0eFOr-8">
          <mxGeometry relative="1" as="geometry" />
        </mxCell>
        <mxCell id="MGecMGWnMkol5uJ0eFOr-2" value="block[0]" style="rounded=1;whiteSpace=wrap;html=1;" vertex="1" parent="1">
          <mxGeometry x="160" y="140" width="110" height="40" as="geometry" />
        </mxCell>
        <mxCell id="MGecMGWnMkol5uJ0eFOr-3" style="edgeStyle=orthogonalEdgeStyle;rounded=0;orthogonalLoop=1;jettySize=auto;html=1;entryX=0.5;entryY=0;entryDx=0;entryDy=0;" edge="1" parent="1" source="MGecMGWnMkol5uJ0eFOr-4" target="MGecMGWnMkol5uJ0eFOr-10">
          <mxGeometry relative="1" as="geometry" />
        </mxCell>
        <mxCell id="MGecMGWnMkol5uJ0eFOr-4" value="block[1]" style="rounded=1;whiteSpace=wrap;html=1;" vertex="1" parent="1">
          <mxGeometry x="320" y="140" width="110" height="40" as="geometry" />
        </mxCell>
        <mxCell id="MGecMGWnMkol5uJ0eFOr-5" style="edgeStyle=orthogonalEdgeStyle;rounded=0;orthogonalLoop=1;jettySize=auto;html=1;entryX=0.5;entryY=0;entryDx=0;entryDy=0;" edge="1" parent="1" source="MGecMGWnMkol5uJ0eFOr-6" target="MGecMGWnMkol5uJ0eFOr-12">
          <mxGeometry relative="1" as="geometry" />
        </mxCell>
        <mxCell id="MGecMGWnMkol5uJ0eFOr-6" value="block[2]" style="rounded=1;whiteSpace=wrap;html=1;" vertex="1" parent="1">
          <mxGeometry x="474" y="140" width="110" height="40" as="geometry" />
        </mxCell>
        <mxCell id="MGecMGWnMkol5uJ0eFOr-7" style="edgeStyle=orthogonalEdgeStyle;rounded=0;orthogonalLoop=1;jettySize=auto;html=1;entryX=0.5;entryY=0;entryDx=0;entryDy=0;" edge="1" parent="1" source="MGecMGWnMkol5uJ0eFOr-8" target="MGecMGWnMkol5uJ0eFOr-14">
          <mxGeometry relative="1" as="geometry" />
        </mxCell>
        <mxCell id="MGecMGWnMkol5uJ0eFOr-87" style="edgeStyle=orthogonalEdgeStyle;rounded=0;orthogonalLoop=1;jettySize=auto;html=1;entryX=0;entryY=0.5;entryDx=0;entryDy=0;" edge="1" parent="1" source="MGecMGWnMkol5uJ0eFOr-8" target="MGecMGWnMkol5uJ0eFOr-4">
          <mxGeometry relative="1" as="geometry" />
        </mxCell>
        <mxCell id="MGecMGWnMkol5uJ0eFOr-8" value="[ bs, 32,&amp;nbsp; 432, 448]" style="text;html=1;strokeColor=none;fillColor=none;align=center;verticalAlign=middle;whiteSpace=wrap;rounded=0;" vertex="1" parent="1">
          <mxGeometry x="156.5" y="212" width="117.5" height="20" as="geometry" />
        </mxCell>
        <mxCell id="MGecMGWnMkol5uJ0eFOr-9" style="edgeStyle=orthogonalEdgeStyle;rounded=0;orthogonalLoop=1;jettySize=auto;html=1;entryX=0.5;entryY=0;entryDx=0;entryDy=0;" edge="1" parent="1" source="MGecMGWnMkol5uJ0eFOr-10" target="MGecMGWnMkol5uJ0eFOr-16">
          <mxGeometry relative="1" as="geometry" />
        </mxCell>
        <mxCell id="MGecMGWnMkol5uJ0eFOr-88" style="edgeStyle=orthogonalEdgeStyle;rounded=0;orthogonalLoop=1;jettySize=auto;html=1;entryX=0;entryY=0.5;entryDx=0;entryDy=0;" edge="1" parent="1" source="MGecMGWnMkol5uJ0eFOr-10" target="MGecMGWnMkol5uJ0eFOr-6">
          <mxGeometry relative="1" as="geometry" />
        </mxCell>
        <mxCell id="MGecMGWnMkol5uJ0eFOr-10" value="[ bs, 48,&amp;nbsp; 216, 224]" style="text;html=1;strokeColor=none;fillColor=none;align=center;verticalAlign=middle;whiteSpace=wrap;rounded=0;" vertex="1" parent="1">
          <mxGeometry x="321.25" y="212" width="107.5" height="20" as="geometry" />
        </mxCell>
        <mxCell id="MGecMGWnMkol5uJ0eFOr-11" style="edgeStyle=orthogonalEdgeStyle;rounded=0;orthogonalLoop=1;jettySize=auto;html=1;entryX=0.5;entryY=0;entryDx=0;entryDy=0;" edge="1" parent="1" source="MGecMGWnMkol5uJ0eFOr-12" target="MGecMGWnMkol5uJ0eFOr-18">
          <mxGeometry relative="1" as="geometry" />
        </mxCell>
        <mxCell id="MGecMGWnMkol5uJ0eFOr-12" value="[ bs, 88,&amp;nbsp; 108, 112]" style="text;html=1;strokeColor=none;fillColor=none;align=center;verticalAlign=middle;whiteSpace=wrap;rounded=0;" vertex="1" parent="1">
          <mxGeometry x="472.5" y="212" width="111.5" height="20" as="geometry" />
        </mxCell>
        <mxCell id="MGecMGWnMkol5uJ0eFOr-13" style="edgeStyle=orthogonalEdgeStyle;rounded=0;orthogonalLoop=1;jettySize=auto;html=1;entryX=0.5;entryY=0;entryDx=0;entryDy=0;" edge="1" parent="1" source="MGecMGWnMkol5uJ0eFOr-14" target="MGecMGWnMkol5uJ0eFOr-20">
          <mxGeometry relative="1" as="geometry" />
        </mxCell>
        <mxCell id="MGecMGWnMkol5uJ0eFOr-14" value="deblock[0]" style="rounded=1;whiteSpace=wrap;html=1;" vertex="1" parent="1">
          <mxGeometry x="160" y="270" width="110" height="40" as="geometry" />
        </mxCell>
        <mxCell id="MGecMGWnMkol5uJ0eFOr-15" style="edgeStyle=orthogonalEdgeStyle;rounded=0;orthogonalLoop=1;jettySize=auto;html=1;" edge="1" parent="1" source="MGecMGWnMkol5uJ0eFOr-16" target="MGecMGWnMkol5uJ0eFOr-22">
          <mxGeometry relative="1" as="geometry" />
        </mxCell>
        <mxCell id="MGecMGWnMkol5uJ0eFOr-16" value="deblock[1]" style="rounded=1;whiteSpace=wrap;html=1;" vertex="1" parent="1">
          <mxGeometry x="320" y="270" width="110" height="40" as="geometry" />
        </mxCell>
        <mxCell id="MGecMGWnMkol5uJ0eFOr-17" style="edgeStyle=orthogonalEdgeStyle;rounded=0;orthogonalLoop=1;jettySize=auto;html=1;entryX=0.5;entryY=0;entryDx=0;entryDy=0;" edge="1" parent="1" source="MGecMGWnMkol5uJ0eFOr-18" target="MGecMGWnMkol5uJ0eFOr-24">
          <mxGeometry relative="1" as="geometry" />
        </mxCell>
        <mxCell id="MGecMGWnMkol5uJ0eFOr-18" value="deblock[2]" style="rounded=1;whiteSpace=wrap;html=1;" vertex="1" parent="1">
          <mxGeometry x="474" y="270" width="110" height="40" as="geometry" />
        </mxCell>
        <mxCell id="MGecMGWnMkol5uJ0eFOr-20" value="[ bs, &lt;font color=&quot;#6666ff&quot;&gt;&lt;b&gt;16&lt;/b&gt;&lt;/font&gt;, 432, 448]" style="text;html=1;strokeColor=none;fillColor=none;align=center;verticalAlign=middle;whiteSpace=wrap;rounded=0;" vertex="1" parent="1">
          <mxGeometry x="122.5" y="340" width="185" height="20" as="geometry" />
        </mxCell>
        <mxCell id="MGecMGWnMkol5uJ0eFOr-22" value="[ bs,&amp;nbsp;&lt;font color=&quot;#6666ff&quot;&gt;&lt;b&gt;16&lt;/b&gt;&lt;/font&gt;,&amp;nbsp;216, 224]" style="text;html=1;strokeColor=none;fillColor=none;align=center;verticalAlign=middle;whiteSpace=wrap;rounded=0;" vertex="1" parent="1">
          <mxGeometry x="282.5" y="340" width="185" height="20" as="geometry" />
        </mxCell>
        <mxCell id="MGecMGWnMkol5uJ0eFOr-24" value="[ bs, 32,&amp;nbsp; 108, 112]" style="text;html=1;strokeColor=none;fillColor=none;align=center;verticalAlign=middle;whiteSpace=wrap;rounded=0;" vertex="1" parent="1">
          <mxGeometry x="436.5" y="340" width="185" height="20" as="geometry" />
        </mxCell>
        <mxCell id="MGecMGWnMkol5uJ0eFOr-25" style="edgeStyle=orthogonalEdgeStyle;rounded=0;orthogonalLoop=1;jettySize=auto;html=1;entryX=0.5;entryY=0;entryDx=0;entryDy=0;" edge="1" parent="1" source="MGecMGWnMkol5uJ0eFOr-26" target="MGecMGWnMkol5uJ0eFOr-27">
          <mxGeometry relative="1" as="geometry" />
        </mxCell>
        <mxCell id="MGecMGWnMkol5uJ0eFOr-26" value="upsample[0]" style="rounded=1;whiteSpace=wrap;html=1;" vertex="1" parent="1">
          <mxGeometry x="147.5" y="710" width="110" height="40" as="geometry" />
        </mxCell>
        <mxCell id="MGecMGWnMkol5uJ0eFOr-27" value="[ bs, 32,&amp;nbsp; 432, 448]" style="text;html=1;strokeColor=none;fillColor=none;align=center;verticalAlign=middle;whiteSpace=wrap;rounded=0;" vertex="1" parent="1">
          <mxGeometry x="110" y="783" width="185" height="20" as="geometry" />
        </mxCell>
        <mxCell id="MGecMGWnMkol5uJ0eFOr-28" style="edgeStyle=orthogonalEdgeStyle;rounded=0;orthogonalLoop=1;jettySize=auto;html=1;entryX=0.5;entryY=0;entryDx=0;entryDy=0;" edge="1" parent="1" source="MGecMGWnMkol5uJ0eFOr-29" target="MGecMGWnMkol5uJ0eFOr-32">
          <mxGeometry relative="1" as="geometry" />
        </mxCell>
        <mxCell id="MGecMGWnMkol5uJ0eFOr-29" value="upsample[1]" style="rounded=1;whiteSpace=wrap;html=1;" vertex="1" parent="1">
          <mxGeometry x="307.5" y="710" width="110" height="40" as="geometry" />
        </mxCell>
        <mxCell id="MGecMGWnMkol5uJ0eFOr-30" style="edgeStyle=orthogonalEdgeStyle;rounded=0;orthogonalLoop=1;jettySize=auto;html=1;entryX=0.5;entryY=0;entryDx=0;entryDy=0;" edge="1" parent="1" source="MGecMGWnMkol5uJ0eFOr-31" target="MGecMGWnMkol5uJ0eFOr-34">
          <mxGeometry relative="1" as="geometry" />
        </mxCell>
        <mxCell id="MGecMGWnMkol5uJ0eFOr-31" value="upsample[2]" style="rounded=1;whiteSpace=wrap;html=1;" vertex="1" parent="1">
          <mxGeometry x="461.5" y="710" width="110" height="40" as="geometry" />
        </mxCell>
        <mxCell id="MGecMGWnMkol5uJ0eFOr-32" value="[ bs, 32,&amp;nbsp; 432, 448]" style="text;html=1;strokeColor=none;fillColor=none;align=center;verticalAlign=middle;whiteSpace=wrap;rounded=0;" vertex="1" parent="1">
          <mxGeometry x="270" y="783" width="185" height="20" as="geometry" />
        </mxCell>
        <mxCell id="MGecMGWnMkol5uJ0eFOr-33" style="edgeStyle=orthogonalEdgeStyle;rounded=0;orthogonalLoop=1;jettySize=auto;html=1;" edge="1" parent="1" source="MGecMGWnMkol5uJ0eFOr-34" target="MGecMGWnMkol5uJ0eFOr-36">
          <mxGeometry relative="1" as="geometry" />
        </mxCell>
        <mxCell id="MGecMGWnMkol5uJ0eFOr-34" value="[ bs, 32,&amp;nbsp; 432, 448]" style="text;html=1;strokeColor=none;fillColor=none;align=center;verticalAlign=middle;whiteSpace=wrap;rounded=0;" vertex="1" parent="1">
          <mxGeometry x="455" y="783" width="123.5" height="20" as="geometry" />
        </mxCell>
        <mxCell id="MGecMGWnMkol5uJ0eFOr-35" value="[ bs, 32,&amp;nbsp; 216, 224]" style="text;html=1;strokeColor=none;fillColor=none;align=center;verticalAlign=middle;whiteSpace=wrap;rounded=0;" vertex="1" parent="1">
          <mxGeometry x="424" y="813" width="185" height="20" as="geometry" />
        </mxCell>
        <mxCell id="MGecMGWnMkol5uJ0eFOr-36" value="[ bs, 96,&amp;nbsp; 432, 448]" style="text;html=1;strokeColor=none;fillColor=none;align=center;verticalAlign=middle;whiteSpace=wrap;rounded=0;" vertex="1" parent="1">
          <mxGeometry x="665" y="783" width="130" height="20" as="geometry" />
        </mxCell>
        <mxCell id="MGecMGWnMkol5uJ0eFOr-37" value="[ bs, 32,&amp;nbsp; 216, 224]" style="text;html=1;strokeColor=none;fillColor=none;align=center;verticalAlign=middle;whiteSpace=wrap;rounded=0;" vertex="1" parent="1">
          <mxGeometry x="637.5" y="813" width="185" height="20" as="geometry" />
        </mxCell>
        <mxCell id="MGecMGWnMkol5uJ0eFOr-38" value="cat" style="text;html=1;strokeColor=none;fillColor=none;align=center;verticalAlign=middle;whiteSpace=wrap;rounded=0;" vertex="1" parent="1">
          <mxGeometry x="587.5" y="763" width="70" height="20" as="geometry" />
        </mxCell>
        <mxCell id="MGecMGWnMkol5uJ0eFOr-39" value="RPNBase" style="rounded=1;whiteSpace=wrap;html=1;fillColor=#ffe6cc;strokeColor=none;" vertex="1" parent="1">
          <mxGeometry x="40" y="70" width="100" height="30" as="geometry" />
        </mxCell>
        <mxCell id="MGecMGWnMkol5uJ0eFOr-40" value="Output" style="rounded=1;whiteSpace=wrap;html=1;fillColor=#ffe6cc;strokeColor=none;" vertex="1" parent="1">
          <mxGeometry x="680" y="733" width="100" height="30" as="geometry" />
        </mxCell>
        <mxCell id="MGecMGWnMkol5uJ0eFOr-41" value="distiller_res[0]" style="rounded=1;whiteSpace=wrap;html=1;fillColor=#e1d5e7;strokeColor=none;" vertex="1" parent="1">
          <mxGeometry x="795" y="783" width="90" height="20" as="geometry" />
        </mxCell>
        <mxCell id="MGecMGWnMkol5uJ0eFOr-42" value="MultiHeadRPN" style="rounded=1;whiteSpace=wrap;html=1;fillColor=#ffe6cc;strokeColor=none;" vertex="1" parent="1">
          <mxGeometry x="68.63" y="900" width="100" height="30" as="geometry" />
        </mxCell>
        <mxCell id="MGecMGWnMkol5uJ0eFOr-43" value="cfg.DISTILLER.CONCAT0" style="rounded=1;whiteSpace=wrap;html=1;fillColor=#dae8fc;strokeColor=none;" vertex="1" parent="1">
          <mxGeometry x="897.5" y="783" width="170" height="20" as="geometry" />
        </mxCell>
        <mxCell id="MGecMGWnMkol5uJ0eFOr-44" style="edgeStyle=orthogonalEdgeStyle;rounded=0;orthogonalLoop=1;jettySize=auto;html=1;entryX=0.5;entryY=0;entryDx=0;entryDy=0;" edge="1" parent="1" source="MGecMGWnMkol5uJ0eFOr-45" target="MGecMGWnMkol5uJ0eFOr-49">
          <mxGeometry relative="1" as="geometry" />
        </mxCell>
        <mxCell id="MGecMGWnMkol5uJ0eFOr-45" value="rpn_heads[0].net" style="rounded=1;whiteSpace=wrap;html=1;" vertex="1" parent="1">
          <mxGeometry x="148.63" y="1000" width="110" height="40" as="geometry" />
        </mxCell>
        <mxCell id="MGecMGWnMkol5uJ0eFOr-46" style="edgeStyle=orthogonalEdgeStyle;rounded=0;orthogonalLoop=1;jettySize=auto;html=1;entryX=0.5;entryY=0;entryDx=0;entryDy=0;" edge="1" parent="1" source="MGecMGWnMkol5uJ0eFOr-47" target="MGecMGWnMkol5uJ0eFOr-45">
          <mxGeometry relative="1" as="geometry" />
        </mxCell>
        <mxCell id="MGecMGWnMkol5uJ0eFOr-47" value="[ bs, 96,&amp;nbsp; 432, 448]" style="text;html=1;strokeColor=none;fillColor=none;align=center;verticalAlign=middle;whiteSpace=wrap;rounded=0;" vertex="1" parent="1">
          <mxGeometry x="138.63" y="950" width="130" height="20" as="geometry" />
        </mxCell>
        <mxCell id="MGecMGWnMkol5uJ0eFOr-48" style="edgeStyle=orthogonalEdgeStyle;rounded=0;orthogonalLoop=1;jettySize=auto;html=1;" edge="1" parent="1" source="MGecMGWnMkol5uJ0eFOr-49" target="MGecMGWnMkol5uJ0eFOr-51">
          <mxGeometry relative="1" as="geometry" />
        </mxCell>
        <mxCell id="MGecMGWnMkol5uJ0eFOr-49" value="[ bs, 32,&amp;nbsp; 432, 448]" style="text;html=1;strokeColor=none;fillColor=none;align=center;verticalAlign=middle;whiteSpace=wrap;rounded=0;" vertex="1" parent="1">
          <mxGeometry x="138.63" y="1080" width="130" height="20" as="geometry" />
        </mxCell>
        <mxCell id="MGecMGWnMkol5uJ0eFOr-50" style="edgeStyle=orthogonalEdgeStyle;rounded=0;orthogonalLoop=1;jettySize=auto;html=1;" edge="1" parent="1" source="MGecMGWnMkol5uJ0eFOr-51" target="MGecMGWnMkol5uJ0eFOr-52">
          <mxGeometry relative="1" as="geometry" />
        </mxCell>
        <mxCell id="MGecMGWnMkol5uJ0eFOr-51" value="cls/box/dir_cls" style="rounded=1;whiteSpace=wrap;html=1;" vertex="1" parent="1">
          <mxGeometry x="148.63" y="1140" width="110" height="40" as="geometry" />
        </mxCell>
        <mxCell id="MGecMGWnMkol5uJ0eFOr-52" value="cls: [bs, 1161216, 4]&lt;br&gt;box: [bs, 1161216, 7]&lt;br&gt;dir_cls: [bs, 1161216, 2]&lt;br&gt;(1161216 = 432*448*3*2)" style="text;html=1;strokeColor=none;fillColor=none;align=right;verticalAlign=middle;whiteSpace=wrap;rounded=0;" vertex="1" parent="1">
          <mxGeometry x="132.38" y="1220" width="142.5" height="60" as="geometry" />
        </mxCell>
        <mxCell id="MGecMGWnMkol5uJ0eFOr-53" value="distiller_res[1]" style="rounded=1;whiteSpace=wrap;html=1;fillColor=#e1d5e7;strokeColor=none;" vertex="1" parent="1">
          <mxGeometry x="271.13" y="1080" width="90" height="20" as="geometry" />
        </mxCell>
        <mxCell id="MGecMGWnMkol5uJ0eFOr-54" value="cfg.DISTILLER.CONV2127" style="rounded=1;whiteSpace=wrap;html=1;fillColor=#dae8fc;strokeColor=none;" vertex="1" parent="1">
          <mxGeometry x="377.63" y="1080" width="170" height="20" as="geometry" />
        </mxCell>
        <mxCell id="MGecMGWnMkol5uJ0eFOr-55" style="edgeStyle=orthogonalEdgeStyle;rounded=0;orthogonalLoop=1;jettySize=auto;html=1;entryX=0.5;entryY=0;entryDx=0;entryDy=0;" edge="1" parent="1" source="MGecMGWnMkol5uJ0eFOr-56" target="MGecMGWnMkol5uJ0eFOr-60">
          <mxGeometry relative="1" as="geometry" />
        </mxCell>
        <mxCell id="MGecMGWnMkol5uJ0eFOr-56" value="rpn_heads[1].net" style="rounded=1;whiteSpace=wrap;html=1;" vertex="1" parent="1">
          <mxGeometry x="588.88" y="1000" width="110" height="40" as="geometry" />
        </mxCell>
        <mxCell id="MGecMGWnMkol5uJ0eFOr-57" style="edgeStyle=orthogonalEdgeStyle;rounded=0;orthogonalLoop=1;jettySize=auto;html=1;entryX=0.5;entryY=0;entryDx=0;entryDy=0;" edge="1" parent="1" source="MGecMGWnMkol5uJ0eFOr-58" target="MGecMGWnMkol5uJ0eFOr-56">
          <mxGeometry relative="1" as="geometry" />
        </mxCell>
        <mxCell id="MGecMGWnMkol5uJ0eFOr-58" value="[ bs, 32,&amp;nbsp; 216, 224]" style="text;html=1;strokeColor=none;fillColor=none;align=center;verticalAlign=middle;whiteSpace=wrap;rounded=0;" vertex="1" parent="1">
          <mxGeometry x="578.88" y="950" width="130" height="20" as="geometry" />
        </mxCell>
        <mxCell id="MGecMGWnMkol5uJ0eFOr-59" style="edgeStyle=orthogonalEdgeStyle;rounded=0;orthogonalLoop=1;jettySize=auto;html=1;" edge="1" parent="1" source="MGecMGWnMkol5uJ0eFOr-60" target="MGecMGWnMkol5uJ0eFOr-62">
          <mxGeometry relative="1" as="geometry" />
        </mxCell>
        <mxCell id="MGecMGWnMkol5uJ0eFOr-60" value="[ bs, 32,&amp;nbsp; 216, 224]" style="text;html=1;strokeColor=none;fillColor=none;align=center;verticalAlign=middle;whiteSpace=wrap;rounded=0;" vertex="1" parent="1">
          <mxGeometry x="578.88" y="1080" width="130" height="20" as="geometry" />
        </mxCell>
        <mxCell id="MGecMGWnMkol5uJ0eFOr-61" style="edgeStyle=orthogonalEdgeStyle;rounded=0;orthogonalLoop=1;jettySize=auto;html=1;" edge="1" parent="1" source="MGecMGWnMkol5uJ0eFOr-62" target="MGecMGWnMkol5uJ0eFOr-63">
          <mxGeometry relative="1" as="geometry" />
        </mxCell>
        <mxCell id="MGecMGWnMkol5uJ0eFOr-62" value="cls/box/dir_cls" style="rounded=1;whiteSpace=wrap;html=1;" vertex="1" parent="1">
          <mxGeometry x="588.88" y="1140" width="110" height="40" as="geometry" />
        </mxCell>
        <mxCell id="MGecMGWnMkol5uJ0eFOr-63" value="cls: [bs, 96768, 4]&lt;br&gt;box: [bs, 96768, 7]&lt;br&gt;dir_cls: [bs, 96768, 2]&lt;br&gt;(1161216 = 216*224*1*2)" style="text;html=1;strokeColor=none;fillColor=none;align=right;verticalAlign=middle;whiteSpace=wrap;rounded=0;" vertex="1" parent="1">
          <mxGeometry x="572.63" y="1220" width="142.5" height="60" as="geometry" />
        </mxCell>
        <mxCell id="MGecMGWnMkol5uJ0eFOr-64" value="distiller_res[2]" style="rounded=1;whiteSpace=wrap;html=1;fillColor=#e1d5e7;strokeColor=none;" vertex="1" parent="1">
          <mxGeometry x="711.38" y="1080" width="90" height="20" as="geometry" />
        </mxCell>
        <mxCell id="MGecMGWnMkol5uJ0eFOr-65" value="cfg.DISTILLER.CONV2127" style="rounded=1;whiteSpace=wrap;html=1;fillColor=#dae8fc;strokeColor=none;" vertex="1" parent="1">
          <mxGeometry x="817.88" y="1080" width="170" height="20" as="geometry" />
        </mxCell>
        <mxCell id="MGecMGWnMkol5uJ0eFOr-66" value="Distill Conv" style="rounded=1;whiteSpace=wrap;html=1;fillColor=#ffe6cc;strokeColor=none;" vertex="1" parent="1">
          <mxGeometry x="68.63" y="1330" width="100" height="30" as="geometry" />
        </mxCell>
        <mxCell id="MGecMGWnMkol5uJ0eFOr-67" value="[ bs, 96,&amp;nbsp; 432, 448]" style="text;html=1;strokeColor=none;fillColor=none;align=center;verticalAlign=middle;whiteSpace=wrap;rounded=0;" vertex="1" parent="1">
          <mxGeometry x="145.13" y="1390" width="130" height="20" as="geometry" />
        </mxCell>
        <mxCell id="MGecMGWnMkol5uJ0eFOr-68" value="distiller_res[0]" style="rounded=1;whiteSpace=wrap;html=1;fillColor=#e1d5e7;strokeColor=none;" vertex="1" parent="1">
          <mxGeometry x="277.13" y="1390" width="90" height="20" as="geometry" />
        </mxCell>
        <mxCell id="MGecMGWnMkol5uJ0eFOr-69" style="edgeStyle=orthogonalEdgeStyle;rounded=0;orthogonalLoop=1;jettySize=auto;html=1;" edge="1" parent="1" source="MGecMGWnMkol5uJ0eFOr-70" target="MGecMGWnMkol5uJ0eFOr-80">
          <mxGeometry relative="1" as="geometry" />
        </mxCell>
        <mxCell id="MGecMGWnMkol5uJ0eFOr-70" value="cfg.DISTILLER.CONCAT0" style="rounded=1;whiteSpace=wrap;html=1;fillColor=#dae8fc;strokeColor=none;" vertex="1" parent="1">
          <mxGeometry x="383.63" y="1390" width="170" height="20" as="geometry" />
        </mxCell>
        <mxCell id="MGecMGWnMkol5uJ0eFOr-71" value="[ bs, 32,&amp;nbsp; 432, 448]" style="text;html=1;strokeColor=none;fillColor=none;align=center;verticalAlign=middle;whiteSpace=wrap;rounded=0;" vertex="1" parent="1">
          <mxGeometry x="145.13" y="1420" width="130" height="20" as="geometry" />
        </mxCell>
        <mxCell id="MGecMGWnMkol5uJ0eFOr-72" value="distiller_res[1]" style="rounded=1;whiteSpace=wrap;html=1;fillColor=#e1d5e7;strokeColor=none;" vertex="1" parent="1">
          <mxGeometry x="277.63" y="1420" width="90" height="20" as="geometry" />
        </mxCell>
        <mxCell id="MGecMGWnMkol5uJ0eFOr-73" style="edgeStyle=orthogonalEdgeStyle;rounded=0;orthogonalLoop=1;jettySize=auto;html=1;entryX=0;entryY=0.5;entryDx=0;entryDy=0;" edge="1" parent="1" source="MGecMGWnMkol5uJ0eFOr-74" target="MGecMGWnMkol5uJ0eFOr-81">
          <mxGeometry relative="1" as="geometry" />
        </mxCell>
        <mxCell id="MGecMGWnMkol5uJ0eFOr-74" value="cfg.DISTILLER.CONV2127" style="rounded=1;whiteSpace=wrap;html=1;fillColor=#dae8fc;strokeColor=none;" vertex="1" parent="1">
          <mxGeometry x="384.13" y="1420" width="170" height="20" as="geometry" />
        </mxCell>
        <mxCell id="MGecMGWnMkol5uJ0eFOr-75" value="[ bs, 32,&amp;nbsp; 216, 224]" style="text;html=1;strokeColor=none;fillColor=none;align=center;verticalAlign=middle;whiteSpace=wrap;rounded=0;" vertex="1" parent="1">
          <mxGeometry x="145.13" y="1450" width="130" height="20" as="geometry" />
        </mxCell>
        <mxCell id="MGecMGWnMkol5uJ0eFOr-76" value="distiller_res[2]" style="rounded=1;whiteSpace=wrap;html=1;fillColor=#e1d5e7;strokeColor=none;" vertex="1" parent="1">
          <mxGeometry x="277.63" y="1450" width="90" height="20" as="geometry" />
        </mxCell>
        <mxCell id="MGecMGWnMkol5uJ0eFOr-77" style="edgeStyle=orthogonalEdgeStyle;rounded=0;orthogonalLoop=1;jettySize=auto;html=1;" edge="1" parent="1" source="MGecMGWnMkol5uJ0eFOr-78" target="MGecMGWnMkol5uJ0eFOr-82">
          <mxGeometry relative="1" as="geometry" />
        </mxCell>
        <mxCell id="MGecMGWnMkol5uJ0eFOr-78" value="cfg.DISTILLER.CONV2127" style="rounded=1;whiteSpace=wrap;html=1;fillColor=#dae8fc;strokeColor=none;" vertex="1" parent="1">
          <mxGeometry x="384.13" y="1450" width="170" height="20" as="geometry" />
        </mxCell>
        <mxCell id="MGecMGWnMkol5uJ0eFOr-79" value="cfg.DISTILLER.DISTILLER_1x1CONV" style="rounded=1;whiteSpace=wrap;html=1;fillColor=#dae8fc;strokeColor=none;" vertex="1" parent="1">
          <mxGeometry x="191.13" y="1335" width="227.5" height="20" as="geometry" />
        </mxCell>
        <mxCell id="MGecMGWnMkol5uJ0eFOr-80" value="[ bs, 192,&amp;nbsp; 432, 448]" style="text;html=1;strokeColor=none;fillColor=none;align=center;verticalAlign=middle;whiteSpace=wrap;rounded=0;" vertex="1" parent="1">
          <mxGeometry x="708.88" y="1390" width="130" height="20" as="geometry" />
        </mxCell>
        <mxCell id="MGecMGWnMkol5uJ0eFOr-81" value="[ bs, 128,&amp;nbsp; 432, 448]" style="text;html=1;strokeColor=none;fillColor=none;align=center;verticalAlign=middle;whiteSpace=wrap;rounded=0;" vertex="1" parent="1">
          <mxGeometry x="708.88" y="1420" width="130" height="20" as="geometry" />
        </mxCell>
        <mxCell id="MGecMGWnMkol5uJ0eFOr-82" value="[ bs, 128,&amp;nbsp; 216, 224]" style="text;html=1;strokeColor=none;fillColor=none;align=center;verticalAlign=middle;whiteSpace=wrap;rounded=0;" vertex="1" parent="1">
          <mxGeometry x="708.88" y="1450" width="130" height="20" as="geometry" />
        </mxCell>
        <mxCell id="MGecMGWnMkol5uJ0eFOr-83" value="1x1 conv" style="text;html=1;align=center;verticalAlign=middle;resizable=0;points=[];autosize=1;" vertex="1" parent="1">
          <mxGeometry x="601.63" y="1376" width="60" height="20" as="geometry" />
        </mxCell>
        <mxCell id="MGecMGWnMkol5uJ0eFOr-84" value="1x1 conv" style="text;html=1;align=center;verticalAlign=middle;resizable=0;points=[];autosize=1;" vertex="1" parent="1">
          <mxGeometry x="601.63" y="1407" width="60" height="20" as="geometry" />
        </mxCell>
        <mxCell id="MGecMGWnMkol5uJ0eFOr-85" value="1x1 conv" style="text;html=1;align=center;verticalAlign=middle;resizable=0;points=[];autosize=1;" vertex="1" parent="1">
          <mxGeometry x="602.13" y="1438" width="60" height="20" as="geometry" />
        </mxCell>
        <mxCell id="MGecMGWnMkol5uJ0eFOr-89" style="edgeStyle=orthogonalEdgeStyle;rounded=0;orthogonalLoop=1;jettySize=auto;html=1;" edge="1" parent="1" source="MGecMGWnMkol5uJ0eFOr-86" target="MGecMGWnMkol5uJ0eFOr-2">
          <mxGeometry relative="1" as="geometry" />
        </mxCell>
        <mxCell id="MGecMGWnMkol5uJ0eFOr-86" value="[bs, 32, 864, 896]" style="text;html=1;strokeColor=none;fillColor=none;align=center;verticalAlign=middle;whiteSpace=wrap;rounded=0;" vertex="1" parent="1">
          <mxGeometry x="146.63" y="90" width="137.25" height="20" as="geometry" />
        </mxCell>
      </root>
    </mxGraphModel>
  </diagram>
</mxfile>
